<svg xmlns="http://www.w3.org/2000/svg" viewBox="0 0 240 220" role="img" aria-label="Cerebro feliz corriendo, mascota de Boldmente"><ellipse cx="122" cy="207" rx="62" ry="7" fill="#F5F5F0" opacity="0.1"></ellipse><g stroke="#F5F5F0" stroke-width="7" stroke-linecap="round"><line x1="12" y1="84" x2="40" y2="84"></line><line x1="2" y1="106" x2="36" y2="106"></line><line x1="14" y1="128" x2="38" y2="128"></line></g><circle cx="52" cy="188" r="6" fill="#F5F5F0" opacity="0.2"></circle><circle cx="38" cy="182" r="4" fill="#F5F5F0" opacity="0.2"></circle><path d="M106 138 L94 168 L70 172" stroke="#F5F5F0" stroke-width="8" fill="none" stroke-linecap="round" stroke-linejoin="round"></path><ellipse cx="62" cy="169" rx="14" ry="8" transform="rotate(-20 62 169)" fill="#1A7A3C" stroke="#F5F5F0" stroke-width="5"></ellipse><path d="M140 138 L158 166 L150 190" stroke="#F5F5F0" stroke-width="8" fill="none" stroke-linecap="round" stroke-linejoin="round"></path><ellipse cx="161" cy="193" rx="15" ry="8" fill="#1A7A3C" stroke="#F5F5F0" stroke-width="5"></ellipse><g transform="rotate(3 120 95)"><path d="M60 120 C40 120 38 92 56 84 C50 62 72 46 92 54 C100 36 130 34 140 50 C156 38 182 48 182 68 C200 72 204 98 190 108 C196 126 178 140 162 134 C150 148 124 148 116 138 C100 148 74 142 72 130 C64 132 58 126 60 120 Z" fill="#E8FF47" stroke="#0A0A0A" stroke-width="6" stroke-linejoin="round"></path><g stroke="#0A0A0A" stroke-width="4" fill="none" stroke-linecap="round" opacity="0.3"><path d="M58 102 C64 94 74 104 80 96"></path><path d="M80 66 C90 58 100 70 110 62"></path><path d="M128 54 C138 62 148 52 158 60"></path><path d="M168 78 C176 74 182 86 190 84"></path><path d="M160 120 C166 128 176 126 180 118"></path><path d="M76 124 C82 130 90 128 94 122"></path></g><ellipse cx="108" cy="92" rx="12" ry="14" fill="#FFFFFF" stroke="#0A0A0A" stroke-width="4"></ellipse><ellipse cx="140" cy="92" rx="12" ry="14" fill="#FFFFFF" stroke="#0A0A0A" stroke-width="4"></ellipse><circle cx="110" cy="93" r="6" fill="#0A0A0A"></circle><circle cx="142" cy="93" r="6" fill="#0A0A0A"></circle><circle cx="112" cy="90" r="2" fill="#FFFFFF"></circle><circle cx="144" cy="90" r="2" fill="#FFFFFF"></circle><path d="M98 71 Q107 63 116 70" stroke="#0A0A0A" stroke-width="4.5" fill="none" stroke-linecap="round"></path><path d="M131 70 Q140 63 149 71" stroke="#0A0A0A" stroke-width="4.5" fill="none" stroke-linecap="round"></path><path d="M106 113 Q124 138 142 113 Z" fill="#0A0A0A" stroke="#0A0A0A" stroke-width="4" stroke-linejoin="round"></path><path d="M115 126 Q124 120 133 126 Q124 133 115 126 Z" fill="#1A7A3C"></path></g></svg>